<?xml version="1.0" encoding="UTF-8" standalone="no"?>
<svg
   xmlns:dc="http://purl.org/dc/elements/1.1/"
   xmlns:cc="http://creativecommons.org/ns#"
   xmlns:rdf="http://www.w3.org/1999/02/22-rdf-syntax-ns#"
   xmlns:svg="http://www.w3.org/2000/svg"
   xmlns="http://www.w3.org/2000/svg"
   xmlns:sodipodi="http://sodipodi.sourceforge.net/DTD/sodipodi-0.dtd"
   xmlns:inkscape="http://www.inkscape.org/namespaces/inkscape"
   width="20"
   height="20"
   viewBox="0 0 121 136"
   version="1.1"
   id="svg54"
   sodipodi:docname="sst3.svg"
   inkscape:version="0.92.3 (2405546, 2018-03-11)">
  <metadata
     id="metadata60">
    <rdf:RDF>
      <cc:Work
         rdf:about="">
        <dc:format>image/svg+xml</dc:format>
        <dc:type
           rdf:resource="http://purl.org/dc/dcmitype/StillImage" />
        <dc:title></dc:title>
      </cc:Work>
    </rdf:RDF>
  </metadata>
  <defs
     id="defs58">
    <clipPath
       clipPathUnits="userSpaceOnUse"
       id="clipPath875">
      <rect
         style="fill:none;fill-opacity:1;stroke-width:0;stroke-miterlimit:4;stroke-dasharray:none"
         id="rect877"
         width="122.28661"
         height="138.85445"
         x="-0.78894579"
         y="-2.0655138" />
    </clipPath>
    <clipPath
       clipPathUnits="userSpaceOnUse"
       id="clipPath879">
      <rect
         style="fill:none;fill-opacity:1;stroke-width:0;stroke-miterlimit:4;stroke-dasharray:none"
         id="rect881"
         width="122.28661"
         height="138.85445"
         x="-0.78894579"
         y="-2.0655138" />
    </clipPath>
    <clipPath
       clipPathUnits="userSpaceOnUse"
       id="clipPath883">
      <rect
         style="fill:none;fill-opacity:1;stroke-width:0;stroke-miterlimit:4;stroke-dasharray:none"
         id="rect885"
         width="122.28661"
         height="138.85445"
         x="-2.7889457"
         y="-4.0655136" />
    </clipPath>
  </defs>
  <sodipodi:namedview
     pagecolor="#ffffff"
     bordercolor="#666666"
     borderopacity="1"
     objecttolerance="10"
     gridtolerance="10"
     guidetolerance="10"
     inkscape:pageopacity="0"
     inkscape:pageshadow="2"
     inkscape:window-width="1991"
     inkscape:window-height="1127"
     id="namedview56"
     showgrid="false"
     inkscape:zoom="1.2675142"
     inkscape:cx="475.96279"
     inkscape:cy="53.798976"
     inkscape:window-x="0"
     inkscape:window-y="28"
     inkscape:window-maximized="0"
     inkscape:current-layer="svg54" />
  <desc
     id="desc2">Created with Lunacy</desc>
  <g
     id="Surge_team_logo_Team_header"
     transform="translate(2,2)"
     clip-path="url(#clipPath883)">
    <g
       id="Layer_1">
      <path
         d="m 44.474,94 h -5 V 50.054 L 2.25,71.833 0,67.503 37.849,45.724 0.760998,24.274 2.792,19.944 39.474,41.394 V 0 h 5 v 41.394 l 37.35,-21.276 2.75,4.33 -36.725,21.276 36.818,21.22 -2.968,4.33 -37.225,-21.22 z"
         id="Polygon"
         transform="translate(16.677002,19.584015)"
         inkscape:connector-curvature="0"
         style="fill:#000000;stroke:none" />
      <path
         d="M 0,17.675 C 0,7.91337 7.91337,0 17.675,0 27.4366,0 35.35,7.91337 35.35,17.675 35.35,27.4366 27.4366,35.35 17.675,35.35 7.91337,35.35 0,27.4366 0,17.675 Z"
         transform="translate(41.151,95.76999)"
         id="Circle"
         inkscape:connector-curvature="0"
         style="fill:#ffffff;stroke:#000000;stroke-width:4" />
      <path
         d="M 0,18.176 C 0,8.13767 8.13767,0 18.176,0 28.2143,0 36.352,8.13767 36.352,18.176 36.352,28.2143 28.2143,36.352 18.176,36.352 8.13767,36.352 0,28.2143 0,18.176 Z"
         transform="translate(41.035995)"
         id="path6"
         inkscape:connector-curvature="0"
         style="fill:#000000;stroke:none" />
      <path
         d="M 0,18.176 C 0,8.13767 8.13767,0 18.176,0 28.2143,0 36.352,8.13767 36.352,18.176 36.352,28.2143 28.2143,36.352 18.176,36.352 8.13767,36.352 0,28.2143 0,18.176 Z"
         transform="translate(41.035995,47.00003)"
         id="path8"
         inkscape:connector-curvature="0"
         style="fill:#ff9100;stroke:#000000;stroke-width:4" />
      <path
         d="M 0,18.176 C 0,8.13767 8.13767,0 18.176,0 28.2143,0 36.352,8.13767 36.352,18.176 36.352,28.2143 28.2143,36.352 18.176,36.352 8.13767,36.352 0,28.2143 0,18.176 Z"
         transform="translate(82.074,71.07803)"
         id="path10"
         inkscape:connector-curvature="0"
         style="fill:#000000;stroke:none" />
      <path
         d="M 0,17.675 C 0,7.91337 7.91337,0 17.675,0 27.4366,0 35.35,7.91337 35.35,17.675 35.35,27.4366 27.4366,35.35 17.675,35.35 7.91337,35.35 0,27.4366 0,17.675 Z"
         transform="translate(0.15100098,24.692017)"
         id="path12"
         inkscape:connector-curvature="0"
         style="fill:#ffffff;stroke:#000000;stroke-width:4" />
      <path
         d="M 0,17.675 C 0,7.91337 7.91337,0 17.675,0 27.4366,0 35.35,7.91337 35.35,17.675 35.35,27.4366 27.4366,35.35 17.675,35.35 7.91337,35.35 0,27.4366 0,17.675 Z"
         transform="translate(82.151,24.69101)"
         id="path14"
         inkscape:connector-curvature="0"
         style="fill:#ffffff;stroke:#000000;stroke-width:4" />
      <path
         d="M 0,18.177 C 0,8.13812 8.13812,0 18.177,0 28.2159,0 36.354,8.13812 36.354,18.177 36.354,28.2159 28.2159,36.354 18.177,36.354 8.13812,36.354 0,28.2159 0,18.177 Z"
         transform="translate(0,71.074005)"
         id="path16"
         inkscape:connector-curvature="0"
         style="fill:#000000;stroke:none" />
      <g
         id="g28"
         transform="translate(152.72202,28.071014)">
        <g
           id="Group">
          <path
             d="M 0.293991,69.276 V 53.475 C 3.15799,55.878 6.269,57.681 9.62698,58.882 12.985,60.084 16.375,60.684 19.799,60.684 c 2.007,0 3.76,-0.181 5.259,-0.543 1.498,-0.362 2.748,-0.864 3.753,-1.506 1.003,-0.642 1.753,-1.398 2.247,-2.271 0.494,-0.872 0.741,-1.819 0.741,-2.839 0,-1.383 -0.395,-2.617 -1.185,-3.704 -0.79,-1.086 -1.869,-2.09 -3.234,-3.012 -1.366,-0.921 -2.987,-1.81 -4.864,-2.667 C 20.64,43.287 18.615,42.414 16.443,41.525 10.912,39.221 6.78899,36.407 4.073,33.082 1.358,29.757 0,25.742 0,21.034 0,17.347 0.740005,14.179 2.222,11.529 3.703,8.88 5.72,6.698 8.271,4.987 10.822,3.276 13.777,2.017 17.134,1.21 20.492,0.403999 24.047,0 27.8,0 c 3.687,0 6.954,0.222 9.802,0.667 2.847,0.444 5.473,1.128 7.876,2.049 V 17.48 C 44.293,16.658 43,15.933 41.602,15.307 c -1.399,-0.625 -2.839,-1.143 -4.32,-1.555 -1.481,-0.411 -2.955,-0.716 -4.419,-0.914 -1.465,-0.197 -2.856,-0.296 -4.172,-0.296 -1.811,0 -3.457,0.173 -4.938,0.519 -1.481,0.346 -2.733,0.832 -3.752,1.457 -1.021,0.626 -1.811,1.375 -2.37,2.247 -0.561,0.873 -0.84,1.852 -0.84,2.938 0,1.185 0.313,2.247 0.938,3.185 0.625,0.938 1.514,1.827 2.667,2.667 1.152,0.839 2.55,1.663 4.197,2.469 1.646,0.807 3.506,1.638 5.58,2.494 2.831,1.185 5.374,2.444 7.628,3.777 2.254,1.333 4.189,2.839 5.802,4.518 1.612,1.679 2.847,3.597 3.703,5.753 0.856,2.156 1.284,4.666 1.284,7.53 0,3.95 -0.749,7.267 -2.247,9.95 -1.498,2.684 -3.53,4.856 -6.098,6.518 -2.567,1.663 -5.555,2.856 -8.962,3.58 -3.407,0.724 -7.004,1.086 -10.789,1.086 -3.885,0 -7.58,-0.33 -11.08499,-0.987 -3.51002,-0.662 -6.54703,-1.65 -9.115019,-2.967 z"
             transform="translate(0,0.00198364)"
             id="Shape"
             inkscape:connector-curvature="0"
             style="fill:#000000;stroke:none" />
          <path
             d="m 58.562,40.144 c 0,21.266 -9.909,31.898 -29.726,31.898 C 9.61099,72.042 0,61.657 0,40.885 V 0 h 15.998 v 41.083 c 0,11.456 4.477,17.184 13.431,17.184 8.789,0 13.184,-5.53 13.184,-16.591 V 0 h 15.949 z"
             transform="translate(59.399963,1.1860046)"
             id="path19"
             inkscape:connector-curvature="0"
             style="fill:#000000;stroke:none" />
          <path
             d="M 41.082,70.808 H 59.401 L 46.021,49.871 C 45.329,48.785 44.564,47.674 43.725,46.538 42.886,45.402 42.004,44.341 41.083,43.353 40.161,42.365 39.207,41.502 38.219,40.761 37.231,40.02 36.21,39.486 35.157,39.156 v -0.197 c 2.402,-0.691 4.584,-1.646 6.542,-2.864 1.958,-1.217 3.629,-2.666 5.012,-4.345 1.382,-1.679 2.451,-3.563 3.209,-5.654 0.757,-2.089 1.136,-4.369 1.136,-6.838 C 51.056,6.419 42.465,0 25.281,0 H 0 V 70.808 H 15.949 V 43.7 h 4.296 c 0.988,0 1.902,0.206 2.741,0.617 0.839,0.412 1.645,1.004 2.419,1.777 0.773,0.774 1.539,1.704 2.296,2.79 0.757,1.087 1.547,2.321 2.37,3.704 z M 15.949,31.652 V 11.951 h 7.209 c 7.407,0 11.11,3.095 11.11,9.283 0,2.962 -1.054,5.448 -3.16,7.456 -2.074,1.975 -4.823,2.962 -8.246,2.962 z"
             transform="translate(133.36801,1.1860046)"
             id="path21"
             inkscape:connector-curvature="0"
             style="fill:#000000;fill-rule:evenodd;stroke:none" />
          <path
             d="m 62.562,67.254 c -6.913,3.983 -15.505,5.975 -25.775,5.975 -11.39,0 -20.368,-3.152 -26.93599,-9.456 C 3.28302,57.469 0,48.787 0,37.726 0,26.6 3.58801,17.53 10.765,10.518 17.941,3.506 27.487,0 39.404,0 c 7.505,0 14.122,1.037 19.85,3.111 v 14.962 c -5.464,-3.16 -12.147,-4.74 -20.047,-4.74 -6.617,0 -12.007,2.148 -16.171,6.444 -4.165,4.296 -6.247,10.032 -6.247,17.208 0,7.275 1.868,12.904 5.604,16.887 3.736,3.983 8.781,5.975 15.134,5.975 3.818,0 6.8471,-0.543 9.085,-1.629 V 44.392 H 32.441 v -12.74 h 30.121 z"
             transform="translate(193.95398)"
             id="path23"
             inkscape:connector-curvature="0"
             style="fill:#000000;stroke:none" />
          <path
             d="M 42.464,70.808 H 0 V 0 H 40.835 V 12.987 H 15.948 V 28.738 H 39.106 V 41.675 H 15.948 v 16.196 h 26.516 z"
             transform="translate(270.293,1.1860046)"
             id="path25"
             inkscape:connector-curvature="0"
             style="fill:#000000;stroke:none" />
        </g>
      </g>
      <g
         id="g50"
         transform="translate(507.0769,28.139038)">
        <g
           id="g48">
          <path
             d="M 0.0490723,69.092 V 57.009 C 1.13409,57.995 2.42407,58.883 3.92108,59.672 c 1.49597,0.789 3.08197,1.455 4.75897,1.997 1.67705,0.543 3.35405,0.962 5.03005,1.258 1.676,0.296 3.222,0.444 4.636,0.444 4.932,0 8.6049,-0.821 11.0219,-2.466 2.4161,-1.644 3.625,-4.027 3.625,-7.151 0,-1.677 -0.403,-3.132 -1.208,-4.364 C 30.979,48.157 29.853,47.031 28.407,46.012 26.96,44.993 25.259,44.014 23.303,43.078 21.347,42.14 19.251,41.163 17.015,40.143 14.615,38.861 12.379,37.562 10.308,36.247 8.23706,34.933 6.43604,33.477 4.90802,31.882 3.37903,30.288 2.17902,28.488 1.30701,26.482 0.436035,24.477 0,22.126 0,19.43 0,16.11 0.747986,13.224 2.24402,10.775 3.73999,8.326 5.71204,6.304 8.16205,4.71 10.611,3.115 13.397,1.932 16.5211,1.159 19.644,0.387001 22.834,0 26.0881,0 c 7.3969,0 12.789,0.838001 16.176,2.515 v 11.59 c -4.012,-2.893 -9.173,-4.34002 -15.485,-4.34002 -1.743,0 -3.477,0.165 -5.203,0.49302 -1.727,0.329 -3.272,0.872 -4.636,1.627 -1.365,0.757 -2.475,1.726 -3.329,2.91 -0.8549,1.184 -1.2819,2.614 -1.2819,4.291 0,1.578 0.328,2.943 0.986,4.093 0.657,1.151 1.619,2.203 2.885,3.156 1.266,0.954 2.812,1.882 4.636,2.786 1.825,0.905 3.937,1.883 6.337,2.935 2.466,1.282 4.792,2.631 6.978,4.044 2.187,1.414 4.11,2.976 5.771,4.685 1.66,1.71 2.975,3.608 3.945,5.696 0.969,2.088 1.455,4.463 1.455,7.126 0,3.584 -0.724,6.608 -2.17,9.074 -1.447,2.466 -3.395,4.472 -5.844,6.017 -2.4489,1.546 -5.269,2.663 -8.458,3.354 -3.189,0.69 -6.559,1.036 -10.11,1.036 -1.184,0 -2.6389,-0.091 -4.364,-0.271 -1.727,-0.181 -3.494,-0.443 -5.30198,-0.789 C 7.2652,71.683 5.55524,71.264 3.94519,70.771 2.33307,70.276 1.0351,69.717 0.0490723,69.092 Z"
             id="path30"
             inkscape:connector-curvature="0"
             style="fill:none;stroke:#000000;stroke-width:3" />
          <path
             d="M 57.503,0 34.324,45.026 V 70.72 H 22.587 V 45.272 L 0,3.8147e-6 H 13.365 L 27.272,30.33 c 0.164,0.362 0.657,1.726 1.479,4.093 h 0.148 c 0.296,-1.052 0.838,-2.417 1.627,-4.093 L 45.074,0 Z"
             transform="translate(48.611084,1.1839905)"
             id="path32"
             inkscape:connector-curvature="0"
             style="fill:none;stroke:#000000;stroke-width:3" />
          <path
             d="M 59.969,70.72 H 47.147 L 13.365,18.741 C 12.51,17.427 11.803,16.062 11.244,14.648 h -0.296 c 0.263,1.513 0.395,4.751 0.395,9.715 V 70.72 H 0 V 0 h 13.661 l 32.647,50.747 c 1.381,2.104 2.269,3.551 2.663,4.34 h 0.197 C 48.8391,53.213 48.675,50.041 48.675,45.569 V 0.00100708 H 59.9681 V 70.72 Z"
             transform="translate(112.98712,1.1829834)"
             id="path34"
             inkscape:connector-curvature="0"
             style="fill:none;stroke:#000000;stroke-width:3" />
          <path
             d="M 52.323,9.962 H 32.006 V 70.72 H 20.269 V 9.962 H 0 V 0 h 52.324 v 9.962 z"
             transform="translate(180.53113,1.1839905)"
             id="path36"
             inkscape:connector-curvature="0"
             style="fill:none;stroke:#000000;stroke-width:3" />
          <path
             d="M 56.812,70.719 H 45.026 V 40.045 H 11.738 V 70.72 H 0 V 0 H 11.738 V 29.738 H 45.026 V 0 h 11.786 z"
             transform="translate(240.3031,1.1839905)"
             id="path38"
             inkscape:connector-curvature="0"
             style="fill:none;stroke:#000000;stroke-width:3" />
          <path
             d="M 52.324,9.962 H 32.006 V 70.72 H 20.27 V 9.962 H 0 V 0 h 52.324 z"
             transform="translate(335.38605,1.1839905)"
             id="path40"
             inkscape:connector-curvature="0"
             style="fill:#ff9100;stroke:#000000;stroke-width:3" />
          <path
             d="M 39.7,70.72 H 0 V 0 H 38.122 V 9.962 H 11.738 v 20.022 h 24.313 v 9.913 H 11.738 v 20.91 H 39.7 Z"
             transform="translate(395.1571,1.1829834)"
             id="path42"
             inkscape:connector-curvature="0"
             style="fill:#ff9100;stroke:#000000;stroke-width:3" />
          <path
             d="M 53.1141,70.72 H 65.986 L 39.7,0 H 26.483 L 0,70.72 h 12.823 l 6.115,-18 H 46.752 Z M 33.832,14.944 43.645,43.153 H 21.9959 l 9.715,-28.209 c 0.3611,-1.084 0.69,-2.564 0.9861,-4.438 h 0.197 c 0.329,2.039 0.641,3.518 0.938,4.438 z"
             transform="translate(439.7541,1.1829834)"
             id="path44"
             inkscape:connector-curvature="0"
             style="fill:#ff9100;fill-rule:evenodd;stroke:#000000;stroke-width:3" />
          <path
             d="M 75.947,70.719 H 64.308 V 24.954 c 0,-3.748 0.23,-8.334 0.691,-13.759 h -0.197 c -0.724,3.091 -1.365,5.31 -1.9239,6.658 L 41.771,70.72 H 33.683 L 12.527,18.247 c -0.5921,-1.545 -1.2171,-3.896 -1.875,-7.052 h -0.197 c 0.264,2.828 0.395,7.447 0.395,13.858 V 70.72 H 0 V 7.62939e-6 H 16.521 L 35.113,47.097 c 1.414,3.617 2.335,6.313 2.762,8.088 h 0.2469 c 1.216,-3.715 2.2021,-6.477 2.959,-8.285 L 60.0189,0 h 15.929 v 70.719 z"
             transform="translate(512.89905,1.18396)"
             id="path46"
             inkscape:connector-curvature="0"
             style="fill:#ff9100;stroke:#000000;stroke-width:3" />
        </g>
      </g>
    </g>
  </g>
  <rect
     style="fill:none;fill-opacity:1;stroke-width:0;stroke-miterlimit:4;stroke-dasharray:none"
     id="rect867"
     width="122.28661"
     height="138.85446"
     x="-0.78894579"
     y="-2.0655138"
     clip-path="url(#clipPath879)" />
  <rect
     style="fill:none;fill-opacity:1;stroke-width:0;stroke-miterlimit:4;stroke-dasharray:none"
     id="rect871"
     width="122.28661"
     height="138.85445"
     x="-0.78894579"
     y="-2.0655138"
     clip-path="url(#clipPath875)" />
</svg>
